<?xml version="1.0" standalone="no"?>
<!DOCTYPE svg PUBLIC "-//W3C//DTD SVG 20010904//EN"
 "http://www.w3.org/TR/2001/REC-SVG-20010904/DTD/svg10.dtd">
<svg version="1.0" xmlns="http://www.w3.org/2000/svg"
 width="256.000000pt" height="256.000000pt" viewBox="0 0 256.000000 256.000000"
 preserveAspectRatio="xMidYMid meet">
<metadata>
Created by potrace 1.14, written by Peter Selinger 2001-2017
</metadata>
<g transform="translate(0.000000,256.000000) scale(0.100000,-0.100000)"
fill="#000000" stroke="none">
<path d="M2130 2440 c-25 -5 -58 -11 -75 -14 -16 -2 -50 -8 -75 -11 -25 -3
-67 -10 -95 -15 -27 -5 -68 -12 -90 -15 -22 -3 -69 -10 -105 -16 -36 -6 -77
-12 -92 -14 -15 -2 -70 -11 -123 -19 -52 -9 -138 -23 -190 -32 -100 -16 -137
-21 -195 -30 -19 -2 -60 -9 -90 -14 -30 -5 -73 -12 -95 -15 -22 -3 -96 -15
-165 -26 -69 -11 -136 -22 -150 -24 -14 -2 -65 -11 -115 -19 -49 -9 -105 -17
-123 -18 -18 -1 -39 -9 -47 -18 -21 -23 -35 -96 -21 -110 8 -9 8 -14 -1 -17
-7 -3 -13 -9 -13 -14 0 -6 4 -8 9 -5 10 7 21 -27 21 -70 0 -18 -5 -31 -12 -31
-15 0 -79 -10 -123 -18 -16 -4 -34 -10 -40 -15 -5 -4 -28 -12 -50 -16 -22 -5
-43 -9 -47 -10 -5 -1 -13 -2 -19 -3 -7 -1 -9 -84 -7 -273 l4 -273 78 -395 c42
-217 91 -469 109 -560 36 -183 24 -168 117 -155 32 5 47 2 55 -8 10 -14 75
-29 75 -17 0 3 8 6 18 6 9 1 33 4 52 7 19 3 53 9 75 13 22 3 43 8 48 11 4 2 7
-2 7 -9 0 -8 3 -9 8 -3 10 15 113 35 105 21 -4 -6 1 -5 10 3 14 11 17 11 17 0
0 -12 2 -12 9 -1 4 8 23 14 42 15 19 2 39 5 44 9 6 3 39 9 74 13 35 4 77 11
93 15 16 5 30 5 34 -1 4 -6 10 -6 18 0 7 6 30 13 52 16 21 4 47 9 57 11 10 3
25 0 34 -8 10 -7 14 -8 10 -1 -5 7 3 13 20 17 24 5 321 53 378 61 11 2 37 6
58 9 20 3 54 9 75 12 20 3 70 11 111 18 40 7 86 12 102 12 16 -1 29 3 29 8 0
4 14 6 30 4 17 -3 30 -1 30 3 0 12 31 4 42 -12 8 -11 9 -11 4 4 -6 18 -5 19
34 23 117 13 140 25 141 73 1 20 1 41 0 47 -1 6 27 17 61 23 99 19 99 19 93
49 -13 66 -15 103 -6 97 22 -13 34 39 28 125 -4 48 -8 93 -11 101 -3 8 -7 30
-10 49 -9 65 -47 305 -51 330 -3 14 -10 56 -15 94 -6 38 -12 78 -15 90 -2 12
-7 37 -9 56 -13 91 -17 116 -21 135 -2 11 -15 94 -30 185 -14 91 -27 176 -30
190 -3 14 -7 45 -10 70 -3 25 -8 56 -11 70 -4 14 -8 42 -10 63 -2 20 -8 56
-13 79 -6 23 -8 45 -6 48 6 10 -34 50 -48 49 -7 -1 -32 -5 -57 -9z"/>
<path d="M1913 365 c0 -8 4 -12 9 -9 5 3 6 10 3 15 -9 13 -12 11 -12 -6z"/>
<path d="M1606 318 c3 -5 10 -6 15 -3 13 9 11 12 -6 12 -8 0 -12 -4 -9 -9z"/>
<path d="M1495 300 c3 -5 8 -10 11 -10 2 0 4 5 4 10 0 6 -5 10 -11 10 -5 0 -7
-4 -4 -10z"/>
<path d="M1265 260 c-3 -6 1 -7 9 -4 18 7 21 14 7 14 -6 0 -13 -4 -16 -10z"/>
<path d="M369 123 c-13 -16 -12 -17 4 -4 16 13 21 21 13 21 -2 0 -10 -8 -17
-17z"/>
</g>
</svg>
